<?xml version="1.0" encoding="UTF-8"?>
<svg version="1.1" viewBox="0 0 2000 2000" width="2000" height="2000" xmlns="http://www.w3.org/2000/svg">
<path transform="translate(440,891)" d="m0 0h14l10 5 8 9 7 12 11 29 13 30 10 26 4 10 2 1 4-15 6-19 4-14 15-42 8-19 5-9 2-1h22l-1 4-9 17-9 23-13 34-16 44-6 19-4 18-6 15-7 13h31l5-5 11-25 12-29 13-36 11-33 7-16 6-5 3-1h7l7 4 1 5h-9l-4 1-5 10-13 34-8 28-7 19-13 33-8 16-7 7-10 3h-37l-5-8-22-50-13-29-1-4h-2l-11 32-5 11-9 24-8 15-6 7-7 2h-23l-13-2-5-3-7-10-9-19-12-30-7-21-5-17-8-21-11-27-4-11 1-3 27 2 6 3 7 11 9 19 11 27 8 20 3 4 7-21 9-24 7-24 10-29 7-14 5-6 5-3zm5 13-6 4-6 12-8 25-11 35-8 26-7 28-9 29-5 12v3l2 1h25l5-7 7-17 6-17 13-30 17-42 7-18 4-13 4-6v-6l-8-13-8-5-6-1z" fill="#94FBDD"/>
<path transform="translate(1616,910)" d="m0 0h22l16 4 16 8 11 8 8 8 10 14 7 16 2 8v24l-4 16-8 16-5 9 22 22-1 4-12 9-8 10h-4l-11-12-9-11-6 1-12 6-11 2h-16l-20-4-9-4-12-7-11-9-10-12-8-14-4-14-1-8v-21l4-16 8-16 8-10 10-10 13-9 10-5zm7 28-12 2-13 7-7 8-9 16-2 7-1 15 2 14 5 12 7 9 5 4 16 8 8 2h20l5-2-2-5-8-9 2-2 12-5 6-7 4 1 9 7 3 1 3-17v-22l-3-12-9-13-11-11-12-6-11-2z" fill="#FEFEFE"/>
<path transform="translate(1399,911)" d="m0 0h27l1 6v60l69 1v-44l1-22h31v157l-1 1-27 1-3-2-1-62h-69l-1 61-2 1h-26l-1-14v-115l1-28z" fill="#FEFEFE"/>
<path transform="translate(1354,911)" d="m0 0h14l1 1v59l-1 98-2 1-23 1-3-3-2-4-11 6-12 4h-20l-11-4-8-6-6-5-9-13-5-13-2-12 1-15 3-11 7-14 11-12 12-6 9-2h17l13 4 12 6v-48l1-8 3-3zm-46 74-9 4-9 8-4 8-2 10 1 11 5 10 7 7 8 4 4 1h10l9-4 8-7 3-8 1-7v-14l-4-10-7-8-7-4-4-1z" fill="#FEFEFE"/>
<path transform="translate(1057,960)" d="m0 0h12l14 3 12 6 10 9 7 12 5 16 1 14-2 13-5 13-8 11-7 7-10 6-12 4-7 1h-11l-11-2-9-6-5-3 1 2-1 47-5 2-18 3h-5l-1-1v-154l11-1h16l2 6 10-3 11-4zm-3 25-11 3-7 6-4 8-1 4v22l4 8 7 7 8 4 10 2 9-1 8-5 6-7 5-12v-17l-4-9-6-7-8-4-9-2z" fill="#FEFEFE"/>
<path transform="translate(872,911)" d="m0 0h30l1 1 1 87 14-15 9-10 9-8 8-3h35l-5 5-6 5-9 11-25 25 2 5 13 15 8 8 11 15 7 9 5 6-1 3-15 1h-21l-7-11-10-11-8-10-9-9-5-3v16l-1 25-3 2-12 1h-15l-1-1z" fill="#FEFEFE"/>
<path transform="translate(694,958)" d="m0 0 14 1 20 7 10 5 7 6 7 11 5 12 2 16-2 15-7 16-7 9-8 8-15 8-10 3h-22l-12-3-11-5-6-4-8-9-8-14-3-9-1-6v-13l3-16 8-16 10-11 16-7 10-3zm-4 26-10 5-6 7-4 8-2 9v8l3 10 4 6 7 7 10 5h13l10-5 7-8 5-9v-20l-6-12-6-7-6-3-4-1z" fill="#FEFEFE"/>
<path transform="translate(1173,959)" d="m0 0h22l15 4 11 6 7 7 4 8 2 7 1 8v68l-2 4h-21l-3-1-3-9-11 8-16 5-6 1h-10l-11-4-8-6-6-7-4-8-1-4v-14l4-9 4-6 9-6 10-4 9-1 37-1-2-10-3-6-7-4-4-1h-21l-12 3-6 4-4-1-7-14-4-5 4-3 28-8zm3 66-11 4-3 4 1 9 3 5 3 3h16l11-4 6-5 4-9v-5l-2-2z" fill="#FEFEFE"/>
<path transform="translate(848,960)" d="m0 0h4l-1 15-2 11-9 3-15 4-8 6-2 5-3 42-2 22-7 2-21 2-1-1v-108l1-1 15-1h11l1 1v8h4l16-7z" fill="#FEFEFE"/>
<path transform="translate(613,931)" d="m0 0h7l7 4 1 5h-9l-4 1-5 10-13 34-8 28-7 19-13 33-8 16-7 7-10 3h-37l-4-6v-2l3-2h39l5-5 11-25 12-29 13-36 11-33 7-16 6-5z" fill="#FDFDFD"/>
<path transform="translate(576,1028)" d="m0 0h5l-1 9-11 28-8 16-7 7-10 3h-37l-4-6v-2l3-2h39l5-5 11-25 3-2 5-9z" fill="#FDFDFD"/>
<path transform="translate(433,1056)" d="m0 0h4l-1 9-3 8-5 10-3 3-6 3-1 2h-23l-9-1-3-4v-5l1-1 28-2 7-1 3-4 2-5 5-5z" fill="#FAFDFC"/>
<path transform="translate(595,959)" d="m0 0h2l-2 9-4 13-2 6-1 2 7-1-2 11-6 20-5 13-2 1v-4h-4l-6 11-6 10-2 1 1-5 12-29 14-40z" fill="#95FBDD"/>
<path transform="translate(595,959)" d="m0 0h2l-2 9-4 13-4 4 3-11z" fill="#9DFBE0"/>
<path transform="translate(430,1079)" d="m0 0 1 3-6 7-7 1 4-4 5-3z" fill="#9CFBDF"/>
</svg>
